<svg xmlns="http://www.w3.org/2000/svg" width="500" height="500" viewBox="0 0 500 500" style="width:100%;height:100%;transform:translate3d(0,0,0);transform-origin:0 0 0"><defs><clipPath id="a"><path d="M0 0h500v500H0z"/></clipPath><clipPath id="b"><path fill="#fff" d="M306.5 57L172 133v238.25l134.5-77V57"/></clipPath><clipPath id="c"><path fill="#fff" d="M657.5 180.5h-115V303h115V180.5"/></clipPath><clipPath id="d"><path fill="#fff" d="M471 250H274v112h197V250"/></clipPath><clipPath id="e"><path fill="#fff" d="M471 250H274v112h197V250"/></clipPath></defs><g clip-path="url(#a)" style="user-select:none"><g style="user-select:none"><path d="M118.045 369.332l129.052-69.977 144.904 69.976-136.532 79.344-137.424-79.343z" fill="#b1c0cb"/><path d="M392 369.331l-.044 2.682-136.532 79.342.045-2.681L392 369.331z" fill="#a0b1bd"/><path d="M255.469 448.674l-.044 2.682-137.424-79.342.044-2.682 137.424 79.342z" fill="#a0b1bd"/></g><g style="user-select:none"><path d="M290.494 47.371l.539 254.308c.007 2.696-1.965 5.319-4.311 6.674l-108.459 62.505c-2.346 1.355-4.473.862-4.48-1.835l-.539-254.307 117.25-67.345z" fill="#434749"/><path d="M285.943 39.601c2.443-1.41 4.508-.06 4.516 2.747l.035 7.173-116.981 67.282-.823-7.157c-.008-2.807 2.217-7.144 4.659-8.554l108.594-61.491z" fill="#dedede"/><path d="M171.366 116.117l2.148 1.009-.035-7.353s1.317-6.114 4.362-7.872 108.123-62.25 108.123-62.25 1.664-1.138 3.376-.1l-2.434-1.023s-1.385-.752-3.11.244c-1.726.996-108.102 62.299-108.102 62.299s-4.328 2.586-4.363 7.874c-.037 5.695.035 7.172.035 7.172z" fill="#f5f5f5"/><path d="M174.053 369.104l-.54-252.308-2.147-.829.54 252.308c.003 1.181.361 1.924.96 2.272l2.148.829c-.599-.348-.958-1.091-.961-2.272z" fill="#3d4042"/></g><path d="M320.643 364.767l-4.782 2.761c-1.226.708-1.232 1.859-.015 2.567l4.751 2.761c1.218.707 3.204.707 4.43 0l4.782-2.761c1.226-.708 1.232-1.859.014-2.567l-4.751-2.761c-1.218-.708-3.203-.708-4.429 0zm-12.061 6.963l-44.514 25.701c-1.219.704-1.226 1.854-.008 2.562l4.751 2.761c1.218.708 3.204.708 4.423.004l44.514-25.7c1.226-.708 1.232-1.859.014-2.567l-4.751-2.761c-1.218-.708-3.203-.708-4.429 0zm-51.077 29.488l-4.782 2.761c-1.226.708-1.232 1.858-.015 2.566l4.751 2.761c1.218.707 3.204.707 4.43 0l4.782-2.761c1.226-.708 1.232-1.858.014-2.566l-4.751-2.761c-1.218-.708-3.203-.708-4.429 0zm34.839-33.179l-4.788 2.765c-1.226.707-1.226 1.855-.009 2.563l4.758 2.764c1.211.704 3.19.708 4.416 0l4.789-2.764c1.226-.708 1.226-1.856.014-2.56l-4.757-2.764c-1.218-.708-3.197-.712-4.423-.004zm-11.352 6.555l-4.789 2.765c-1.225.707-1.225 1.855-.008 2.563l4.758 2.764c1.211.704 3.19.708 4.416 0l4.789-2.764c1.226-.708 1.226-1.856.014-2.56l-4.757-2.764c-1.218-.708-3.197-.712-4.423-.004zm-23.413 13.516l-4.789 2.765c-1.219.704-1.225 1.855-.008 2.563l4.758 2.764c1.211.704 3.197.704 4.416 0l4.789-2.764c1.226-.708 1.232-1.859.021-2.563l-4.758-2.765c-1.218-.708-3.203-.708-4.429 0zm-11.352 6.554l-4.782 2.761c-1.226.708-1.232 1.859-.015 2.567l4.758 2.764c1.211.704 3.197.703 4.423-.004l4.782-2.76c1.226-.708 1.232-1.858.021-2.562l-4.758-2.766c-1.218-.708-3.203-.708-4.429 0zm51.163-43.411l-4.782 2.761c-1.226.708-1.239 1.854-.021 2.562l4.757 2.765c1.218.707 3.198.704 4.423-.004l4.783-2.761c1.225-.708 1.238-1.854.02-2.562l-4.757-2.765c-1.218-.707-3.197-.704-4.423.004zm-23.407 13.513l-4.789 2.765c-1.226.707-1.232 1.851-.014 2.559l4.756 2.765c1.218.707 3.191.707 4.417 0l4.789-2.765c1.225-.708 1.232-1.852.014-2.559l-4.756-2.765c-1.218-.708-3.191-.708-4.417 0zm12.061-6.963l-4.789 2.765c-1.226.707-1.239 1.855-.021 2.563l4.758 2.764c1.218.708 3.196.704 4.422-.003l4.789-2.765c1.219-.704 1.232-1.852.014-2.559l-4.756-2.765c-1.218-.708-3.198-.704-4.417 0zm-23.413 13.518l-4.789 2.765c-1.226.707-1.232 1.851-.014 2.559l4.756 2.765c1.218.707 3.191.707 4.417 0l4.789-2.765c1.225-.708 1.232-1.852.014-2.559l-4.756-2.765c-1.218-.708-3.191-.708-4.417 0zm-11.351 6.553l-4.789 2.765c-1.225.707-1.232 1.851-.014 2.559l4.756 2.765c1.218.707 3.191.707 4.417 0l4.789-2.765c1.225-.708 1.232-1.852.014-2.559l-4.756-2.765c-1.218-.708-3.191-.708-4.417 0zm45.474-39.32l-21.101 12.184c-1.226.708-1.239 1.854-.021 2.562l4.757 2.764c1.218.708 3.197.705 4.423-.003l21.102-12.184c1.225-.708 1.232-1.851.014-2.558l-4.757-2.765c-1.218-.708-3.191-.708-4.417 0zm-27.665 15.971l-4.789 2.765c-1.226.707-1.232 1.851-.014 2.559l4.756 2.765c1.218.707 3.191.707 4.417 0l4.789-2.765c1.225-.708 1.232-1.852.014-2.559l-4.756-2.765c-1.218-.708-3.191-.708-4.417 0zm-11.351 6.554l-4.789 2.765c-1.226.707-1.232 1.851-.014 2.559l4.756 2.765c1.218.707 3.191.707 4.417 0l4.789-2.765c1.225-.708 1.232-1.852.014-2.559l-4.756-2.765c-1.218-.708-3.191-.708-4.417 0zm-11.353 6.555l-4.789 2.765c-1.225.707-1.232 1.851-.014 2.559l4.756 2.765c1.218.707 3.191.707 4.417 0l4.789-2.765c1.225-.708 1.232-1.852.014-2.559l-4.756-2.765c-1.218-.708-3.191-.708-4.417 0zm-12.06 6.963l-4.789 2.765c-1.22.704-1.232 1.85-.014 2.558l4.757 2.765c1.218.707 3.197.704 4.416 0l4.789-2.765c1.225-.708 1.239-1.854.021-2.562l-4.758-2.765c-1.218-.707-3.196-.704-4.422.004zm-11.351 6.554l-4.782 2.761c-1.226.708-1.239 1.854-.021 2.562l4.757 2.765c1.218.707 3.198.704 4.423-.004l4.782-2.761c1.225-.708 1.239-1.854.021-2.562l-4.758-2.765c-1.218-.707-3.196-.704-4.422.004zm-11.346 6.55l-4.789 2.765c-1.226.707-1.232 1.851-.014 2.559l4.756 2.765c1.218.707 3.191.707 4.417 0l4.789-2.765c1.225-.708 1.232-1.852.014-2.559l-4.756-2.765c-1.218-.708-3.191-.708-4.417 0zm16.239 3.69l-9.749 5.63c-1.226.708-1.233 1.85-.015 2.558l4.758 2.765c1.217.707 3.19.708 4.416 0l9.75-5.629c1.225-.708 1.238-1.855.02-2.563l-4.757-2.765c-1.218-.707-3.197-.704-4.423.004zm12.061-6.963l-4.782 2.761c-1.226.708-1.239 1.854-.021 2.562l4.757 2.765c1.218.707 3.198.704 4.423-.004l4.782-2.761c1.225-.708 1.239-1.854.021-2.562l-4.758-2.765c-1.218-.707-3.196-.704-4.422.004zm68.813-39.73l-4.789 2.765c-1.225.707-1.232 1.851-.014 2.559l4.757 2.765c1.218.707 3.191.707 4.417 0l4.789-2.765c1.225-.708 1.231-1.852.013-2.559l-4.756-2.765c-1.218-.708-3.191-.708-4.417 0zm-73.859 56.516l-4.789 2.765c-1.225.707-1.225 1.854-.008 2.562l4.758 2.765c1.211.704 3.19.708 4.416 0l4.789-2.765c1.226-.708 1.226-1.854.014-2.558l-4.757-2.764c-1.218-.708-3.197-.713-4.423-.005zm34.758-20.066l-4.788 2.765c-1.226.707-1.226 1.855-.009 2.563l4.758 2.764c1.211.704 3.191.708 4.416 0l4.789-2.764c1.226-.708 1.226-1.856.014-2.56l-4.757-2.764c-1.218-.708-3.197-.712-4.423-.004zm34.049-19.658l-4.782 2.761c-1.226.708-1.232 1.859-.015 2.567l4.758 2.764c1.211.704 3.197.704 4.423-.003l4.782-2.761c1.226-.708 1.232-1.859.021-2.563l-4.758-2.765c-1.218-.708-3.203-.708-4.429 0zm17.028-9.832l-9.749 5.63c-1.226.708-1.233 1.857-.015 2.564l4.758 2.765c1.211.704 3.197.704 4.423-.004l9.749-5.627c1.226-.708 1.226-1.856.014-2.56l-4.757-2.763c-1.218-.708-3.197-.713-4.423-.005zm-74.557 56.111l-4.788 2.765c-1.226.707-1.226 1.854-.009 2.562l4.751 2.761c1.218.707 3.198.712 4.423.004l4.789-2.765c1.226-.708 1.226-1.855.008-2.562l-4.751-2.761c-1.218-.708-3.197-.712-4.423-.004zm85.835-49.557l-4.789 2.765c-1.225.707-1.225 1.855-.008 2.563l4.751 2.761c1.218.707 3.197.711 4.423.003l4.789-2.764c1.226-.708 1.226-1.856.008-2.563l-4.751-2.761c-1.218-.708-3.197-.712-4.423-.004z" fill="#fff" fill-opacity=".3" display="block" style="user-select:none"/><g clip-path="url(#b)" style="user-select:none"><path d="M281.642 285.28l-58.886 33.998c-1.366.789-2.48 2.71-2.475 4.287.004 1.578 1.125 2.209 2.491 1.42l58.886-33.997c1.367-.789 2.474-2.706 2.469-4.283-.004-1.578-1.119-2.214-2.485-1.425zm-67.396 38.911l-6.385 3.686c-1.372.793-2.48 2.711-2.475 4.288.004 1.577 1.119 2.213 2.492 1.42l6.384-3.686c1.373-.793 2.479-2.711 2.475-4.288-.005-1.577-1.118-2.213-2.491-1.42zm-15.605 9.009l-14.194 8.194c-1.366.789-2.479 2.711-2.475 4.288.005 1.578 1.126 2.209 2.492 1.42l14.192-8.194c1.366-.789 2.474-2.707 2.469-4.284-.004-1.578-1.118-2.213-2.484-1.424zm31.173-30.24l-45.401 26.213c-1.367.789-2.48 2.711-2.476 4.281.005 1.577 1.126 2.209 2.492 1.42l45.401-26.214c1.373-.792 2.479-2.71 2.475-4.287-.005-1.57-1.118-2.206-2.491-1.413zm-15.64-4.035l-6.385 3.686c-1.372.793-2.48 2.711-2.475 4.288.004 1.57 1.119 2.213 2.492 1.42l6.384-3.686c1.373-.793 2.479-2.718 2.475-4.288-.005-1.577-1.118-2.213-2.491-1.42zm-15.604 9.009l-14.194 8.194c-1.366.789-2.479 2.711-2.475 4.288.005 1.57 1.126 2.209 2.492 1.42l14.192-8.194c1.366-.789 2.474-2.714 2.469-4.284-.004-1.578-1.118-2.213-2.484-1.424zm82.967-60.151l-31.216 18.022c-1.372.792-2.479 2.71-2.474 4.288.004 1.577 1.118 2.212 2.491 1.419l31.214-18.021c1.367-.789 2.474-2.707 2.469-4.284-.004-1.578-1.118-2.213-2.484-1.424zm-40.441 23.348l-6.385 3.687c-1.372.793-2.48 2.711-2.475 4.288.004 1.577 1.119 2.212 2.492 1.42l6.384-3.686c1.373-.793 2.479-2.711 2.475-4.288-.005-1.577-1.118-2.214-2.491-1.421zm-14.896 8.6l-41.858 24.167c-1.366.788-2.48 2.71-2.475 4.287.004 1.578 1.125 2.209 2.491 1.42l41.858-24.166c1.373-.793 2.48-2.711 2.476-4.288-.005-1.577-1.119-2.213-2.492-1.42zm55.298-44.992l-58.886 33.998c-1.366.789-2.48 2.711-2.475 4.289.004 1.577 1.125 2.207 2.491 1.418l58.886-33.997c1.367-.789 2.474-2.707 2.469-4.284-.004-1.578-1.119-2.213-2.485-1.424zm-67.395 38.912l-6.385 3.687c-1.372.793-2.48 2.711-2.475 4.288.004 1.577 1.119 2.212 2.492 1.42l6.384-3.686c1.373-.793 2.479-2.711 2.475-4.288-.005-1.577-1.118-2.214-2.491-1.421zm-15.606 9.008l-14.194 8.194c-1.366.789-2.479 2.711-2.475 4.288.005 1.578 1.126 2.209 2.492 1.42l14.192-8.194c1.366-.789 2.474-2.707 2.469-4.284-.004-1.578-1.118-2.213-2.484-1.424zm31.175-30.241l-45.401 26.213c-1.367.789-2.48 2.711-2.476 4.288.005 1.57 1.126 2.202 2.492 1.413l45.401-26.214c1.373-.792 2.479-2.71 2.475-4.28-.005-1.577-1.118-2.213-2.491-1.42zm-2.164-11.816l-6.385 3.687c-1.372.793-2.48 2.711-2.475 4.288.004 1.577 1.119 2.212 2.492 1.42l6.384-3.686c1.373-.793 2.479-2.711 2.475-4.288-.005-1.577-1.118-2.214-2.491-1.421zm-15.604 9.009l-27.672 15.976c-1.366.789-2.479 2.71-2.475 4.288.005 1.577 1.125 2.209 2.491 1.42l27.672-15.976c1.366-.789 2.479-2.711 2.475-4.288-.005-1.577-1.125-2.209-2.491-1.42zm69.488-52.369l-14.194 8.194c-1.366.789-2.479 2.711-2.475 4.288.005 1.578 1.126 2.209 2.492 1.42l14.193-8.194c1.367-.789 2.474-2.707 2.469-4.284-.004-1.578-1.119-2.213-2.485-1.424zm-23.412 13.517l-6.385 3.687c-1.372.793-2.48 2.711-2.475 4.288.004 1.577 1.119 2.212 2.492 1.42l6.384-3.686c1.373-.793 2.479-2.711 2.475-4.288-.005-1.577-1.118-2.214-2.491-1.421zm-14.896 8.6l-58.886 33.998c-1.366.789-2.48 2.71-2.475 4.287.004 1.578 1.125 2.209 2.491 1.42l58.886-33.997c1.366-.789 2.474-2.707 2.469-4.284-.004-1.578-1.119-2.213-2.485-1.424zm-12.097-6.081l-6.385 3.686c-1.372.793-2.48 2.719-2.475 4.289.004 1.577 1.119 2.211 2.492 1.419l6.384-3.686c1.367-.789 2.479-2.711 2.475-4.288-.005-1.57-1.125-2.209-2.491-1.42zm-15.611 9.013l-31.216 18.023c-1.366.789-2.479 2.718-2.474 4.288.004 1.577 1.124 2.208 2.491 1.42L215.392 228c1.373-.793 2.479-2.711 2.475-4.288-.005-1.57-1.118-2.214-2.491-1.421zm65.945-50.315l-14.194 8.194c-1.366.789-2.479 2.711-2.475 4.288.005 1.57 1.126 2.209 2.492 1.42l14.193-8.194c1.367-.789 2.474-2.714 2.469-4.284-.004-1.578-1.119-2.213-2.485-1.424zm-23.412 13.516l-6.385 3.687c-1.372.793-2.48 2.711-2.475 4.288.004 1.57 1.119 2.212 2.492 1.42l6.384-3.686c1.373-.793 2.479-2.718 2.475-4.288-.005-1.577-1.118-2.214-2.491-1.421zm-14.896 8.6l-58.886 33.998c-1.366.789-2.48 2.71-2.475 4.287.004 1.57 1.125 2.209 2.491 1.42l58.886-33.997c1.367-.789 2.474-2.714 2.469-4.284-.004-1.578-1.119-2.213-2.485-1.424zm38.272-34.346l-45.409 26.216c-1.366.789-2.473 2.707-2.469 4.284.005 1.578 1.119 2.213 2.486 1.424l45.408-26.216c1.367-.789 2.473-2.707 2.468-4.284-.004-1.578-1.118-2.213-2.484-1.424zm-53.917 31.129l-6.385 3.687c-1.372.793-2.48 2.711-2.475 4.288.004 1.577 1.119 2.212 2.492 1.42l6.384-3.686c1.373-.793 2.479-2.711 2.475-4.288-.005-1.577-1.118-2.214-2.491-1.421zm-15.605 9.01l-27.672 15.976c-1.366.789-2.479 2.71-2.475 4.288.005 1.577 1.125 2.209 2.491 1.42l27.672-15.976c1.367-.789 2.479-2.711 2.475-4.288-.005-1.577-1.125-2.209-2.491-1.42zm46.074-39.667l-6.385 3.687c-1.372.793-2.48 2.711-2.475 4.288.004 1.577 1.119 2.212 2.492 1.42l6.384-3.686c1.373-.793 2.479-2.711 2.475-4.288-.005-1.577-1.118-2.214-2.491-1.421zm-14.896 8.6l-58.886 33.998c-1.366.789-2.48 2.71-2.475 4.287.004 1.578 1.125 2.209 2.491 1.42l58.886-33.997c1.366-.789 2.474-2.707 2.469-4.284-.004-1.578-1.119-2.213-2.485-1.424zm38.271-35.154l-41.858 24.168c-1.373.792-2.48 2.71-2.475 4.28.004 1.577 1.119 2.212 2.491 1.419l41.858-24.167c1.367-.788 2.474-2.706 2.469-4.284-.004-1.57-1.119-2.205-2.485-1.416zm-50.369 29.081l-6.385 3.686c-1.372.793-2.48 2.711-2.475 4.281.004 1.577 1.119 2.212 2.492 1.42l6.384-3.687c1.366-.788 2.479-2.71 2.475-4.287-.005-1.57-1.125-2.202-2.491-1.413zm-15.61 9.013l-31.216 18.022c-1.366.789-2.479 2.71-2.474 4.28.004 1.578 1.124 2.209 2.491 1.42l31.215-18.022c1.373-.792 2.479-2.71 2.475-4.287-.005-1.57-1.118-2.206-2.491-1.413zm65.945-50.323l-14.194 8.194c-1.366.789-2.479 2.711-2.475 4.288.005 1.578 1.126 2.209 2.492 1.42l14.193-8.194c1.367-.789 2.474-2.707 2.469-4.284-.004-1.578-1.119-2.213-2.485-1.424zm-23.414 13.516l-6.385 3.687c-1.372.793-2.48 2.711-2.475 4.288.004 1.577 1.119 2.212 2.492 1.42l6.384-3.686c1.373-.793 2.479-2.711 2.475-4.288-.005-1.577-1.118-2.214-2.491-1.421zm-14.895 8.6l-58.886 33.998c-1.366.789-2.48 2.71-2.475 4.287.004 1.578 1.125 2.209 2.491 1.42l58.886-33.997c1.367-.789 2.474-2.707 2.469-4.284-.004-1.578-1.119-2.213-2.485-1.424zm-29.123 4.565l-6.385 3.687c-1.372.793-2.48 2.711-2.475 4.288.004 1.577 1.119 2.212 2.492 1.42l6.384-3.686c1.373-.793 2.479-2.711 2.475-4.288-.005-1.577-1.118-2.214-2.491-1.421zm-15.603 9.009l-14.194 8.194c-1.366.789-2.479 2.711-2.475 4.288.005 1.578 1.126 2.209 2.492 1.42l14.192-8.194c1.366-.789 2.474-2.707 2.469-4.284-.004-1.578-1.118-2.213-2.484-1.424zm82.963-60.965l-31.216 18.022c-1.372.792-2.479 2.719-2.474 4.289.004 1.577 1.118 2.211 2.491 1.418l31.214-18.021c1.367-.789 2.474-2.707 2.469-4.284-.004-1.57-1.118-2.213-2.484-1.424zm-40.44 23.348l-6.385 3.687c-1.372.793-2.48 2.718-2.475 4.288.004 1.577 1.119 2.212 2.492 1.42l6.384-3.686c1.373-.793 2.479-2.711 2.475-4.288-.005-1.57-1.118-2.214-2.491-1.421zm-14.896 8.601l-41.858 24.167c-1.366.788-2.48 2.717-2.475 4.287.004 1.578 1.125 2.209 2.491 1.42l41.858-24.166c1.373-.793 2.48-2.711 2.476-4.288-.005-1.57-1.119-2.213-2.492-1.42zm55.299-44.985l-58.886 33.998c-1.366.789-2.48 2.71-2.475 4.287.004 1.57 1.125 2.202 2.491 1.413l58.886-33.998c1.367-.788 2.474-2.706 2.469-4.276-.004-1.578-1.119-2.213-2.485-1.424zm-67.396 38.911l-6.385 3.686c-1.372.793-2.48 2.711-2.475 4.288.004 1.57 1.119 2.205 2.492 1.413l6.384-3.687c1.373-.792 2.479-2.71 2.475-4.28-.005-1.577-1.118-2.213-2.491-1.42zm-15.604 9.009l-14.194 8.194c-1.366.789-2.479 2.712-2.475 4.289.005 1.57 1.126 2.201 2.492 1.412l14.192-8.195c1.366-.788 2.474-2.706 2.469-4.276-.004-1.578-1.118-2.213-2.484-1.424zm82.964-60.15L253.361 86.87c-1.373.792-2.479 2.71-2.475 4.288.005 1.577 1.118 2.212 2.491 1.42l27.671-15.976c1.367-.789 2.474-2.707 2.469-4.284-.004-1.578-1.118-2.213-2.484-1.424zm-36.889 21.298l-6.385 3.687c-1.372.793-2.48 2.711-2.475 4.288.004 1.577 1.119 2.212 2.492 1.42l6.384-3.686c1.373-.793 2.479-2.711 2.475-4.288-.005-1.577-1.118-2.214-2.491-1.421zm-14.902 8.604l-45.401 26.212c-1.367.789-2.48 2.711-2.476 4.288.005 1.578 1.126 2.209 2.492 1.42l45.401-26.212c1.373-.793 2.479-2.711 2.475-4.288-.005-1.577-1.118-2.213-2.491-1.42z" fill="#3e4245" display="block" style="user-select:none"/><path d="M299.892 288.28l-58.886 33.998c-1.366.789-2.48 2.71-2.475 4.287.004 1.578 1.125 2.209 2.491 1.42l58.886-33.997c1.367-.789 2.474-2.706 2.469-4.283-.004-1.578-1.119-2.214-2.485-1.425z" fill="#ed5555" display="block" style="user-select:none"/><path d="M232.496 327.191l-6.385 3.686c-1.372.793-2.48 2.711-2.475 4.288.004 1.577 1.119 2.213 2.492 1.42l6.384-3.686c1.373-.793 2.479-2.711 2.475-4.288-.005-1.577-1.118-2.213-2.491-1.42z" fill="#7efcbd" display="block" style="user-select:none"/><path d="M216.891 336.2l-14.194 8.194c-1.366.789-2.479 2.711-2.475 4.288.005 1.578 1.126 2.209 2.492 1.42l14.192-8.194c1.366-.789 2.474-2.707 2.469-4.284-.004-1.578-1.118-2.213-2.484-1.424z" fill="#fff" display="block" style="user-select:none"/><path d="M248.064 305.96l-45.401 26.213c-1.367.789-2.48 2.711-2.476 4.281.005 1.577 1.126 2.209 2.492 1.42l45.401-26.214c1.373-.792 2.479-2.71 2.475-4.287-.005-1.57-1.118-2.206-2.491-1.413zm-15.64-4.035l-6.385 3.686c-1.372.793-2.48 2.711-2.475 4.288.004 1.57 1.119 2.213 2.492 1.42l6.384-3.686c1.373-.793 2.479-2.718 2.475-4.288-.005-1.577-1.118-2.213-2.491-1.42z" fill="#7efcbd" display="block" style="user-select:none"/><path d="M216.82 310.934l-14.194 8.194c-1.366.789-2.479 2.711-2.475 4.288.005 1.57 1.126 2.209 2.492 1.42l14.192-8.194c1.366-.789 2.474-2.714 2.469-4.284-.004-1.578-1.118-2.213-2.484-1.424z" fill="#fff" display="block" style="user-select:none"/><path d="M299.787 250.783l-31.216 18.022c-1.372.792-2.479 2.71-2.474 4.288.004 1.577 1.118 2.212 2.491 1.419l31.214-18.021c1.367-.789 2.474-2.707 2.469-4.284-.004-1.578-1.118-2.213-2.484-1.424z" fill="#7efcbd" display="block" style="user-select:none"/><path d="M259.346 274.131l-6.385 3.687c-1.372.793-2.48 2.711-2.475 4.288.004 1.577 1.119 2.212 2.492 1.42l6.384-3.686c1.373-.793 2.479-2.711 2.475-4.288-.005-1.577-1.118-2.214-2.491-1.421z" fill="#fff" display="block" style="user-select:none"/><path d="M244.45 282.731l-41.858 24.167c-1.366.788-2.48 2.71-2.475 4.287.004 1.578 1.125 2.209 2.491 1.42l41.858-24.166c1.373-.793 2.48-2.711 2.476-4.288-.005-1.577-1.119-2.213-2.492-1.42z" fill="#7ac8f0" display="block" style="user-select:none"/><path d="M299.748 237.739l-58.886 33.998c-1.366.789-2.48 2.711-2.475 4.289.004 1.577 1.125 2.207 2.491 1.418l58.886-33.997c1.367-.789 2.474-2.707 2.469-4.284-.004-1.578-1.119-2.213-2.485-1.424z" fill="#fff" display="block" style="user-select:none"/><path d="M232.353 276.651l-6.385 3.687c-1.372.793-2.48 2.711-2.475 4.288.004 1.577 1.119 2.212 2.492 1.42l6.384-3.686c1.373-.793 2.479-2.711 2.475-4.288-.005-1.577-1.118-2.214-2.491-1.421z" fill="#7efcbd" display="block" style="user-select:none"/><path d="M216.747 285.659l-14.194 8.194c-1.366.789-2.479 2.711-2.475 4.288.005 1.578 1.126 2.209 2.492 1.42l14.192-8.194c1.366-.789 2.474-2.707 2.469-4.284-.004-1.578-1.118-2.213-2.484-1.424z" fill="#fff" display="block" style="user-select:none"/><path d="M247.922 255.418l-45.401 26.213c-1.367.789-2.48 2.711-2.476 4.288.005 1.57 1.126 2.202 2.492 1.413l45.401-26.214c1.373-.792 2.479-2.71 2.475-4.28-.005-1.577-1.118-2.213-2.491-1.42z" fill="#7efcbd" display="block" style="user-select:none"/><path d="M245.758 243.602l-6.385 3.687c-1.372.793-2.48 2.711-2.475 4.288.004 1.577 1.119 2.212 2.492 1.42l6.384-3.686c1.373-.793 2.479-2.711 2.475-4.288-.005-1.577-1.118-2.214-2.491-1.421z" fill="#ed5555" display="block" style="user-select:none"/><path d="M230.154 252.611l-27.672 15.976c-1.366.789-2.479 2.71-2.475 4.288.005 1.577 1.125 2.209 2.491 1.42l27.672-15.976c1.366-.789 2.479-2.711 2.475-4.288-.005-1.577-1.125-2.209-2.491-1.42z" fill="#7ac8f0" display="block" style="user-select:none"/><path d="M299.642 200.242l-14.194 8.194c-1.366.789-2.479 2.711-2.475 4.288.005 1.578 1.126 2.209 2.492 1.42l14.193-8.194c1.367-.789 2.474-2.707 2.469-4.284-.004-1.578-1.119-2.213-2.485-1.424z" fill="#fff" display="block" style="user-select:none"/><path d="M276.23 213.759l-6.385 3.687c-1.372.793-2.48 2.711-2.475 4.288.004 1.577 1.119 2.212 2.492 1.42l6.384-3.686c1.373-.793 2.479-2.711 2.475-4.288-.005-1.577-1.118-2.214-2.491-1.421z" fill="#7efcbd" display="block" style="user-select:none"/><path d="M261.334 222.359l-58.886 33.998c-1.366.789-2.48 2.71-2.475 4.287.004 1.578 1.125 2.209 2.491 1.42l58.886-33.997c1.366-.789 2.474-2.707 2.469-4.284-.004-1.578-1.119-2.213-2.485-1.424z" fill="#ed5555" display="block" style="user-select:none"/><path d="M249.237 216.278l-6.385 3.686c-1.372.793-2.48 2.719-2.475 4.289.004 1.577 1.119 2.211 2.492 1.419l6.384-3.686c1.367-.789 2.479-2.711 2.475-4.288-.005-1.57-1.125-2.209-2.491-1.42z" fill="#fff" display="block" style="user-select:none"/><path d="M233.626 225.291l-31.216 18.023c-1.366.789-2.479 2.718-2.474 4.288.004 1.577 1.124 2.208 2.491 1.42L233.642 231c1.373-.793 2.479-2.711 2.475-4.288-.005-1.57-1.118-2.214-2.491-1.421z" fill="#7efcbd" display="block" style="user-select:none"/><path d="M299.571 174.976l-14.194 8.194c-1.366.789-2.479 2.711-2.475 4.288.005 1.57 1.126 2.209 2.492 1.42l14.193-8.194c1.367-.789 2.474-2.714 2.469-4.284-.004-1.578-1.119-2.213-2.485-1.424z" fill="#fff" display="block" style="user-select:none"/><path d="M276.159 188.492l-6.385 3.687c-1.372.793-2.48 2.711-2.475 4.288.004 1.57 1.119 2.212 2.492 1.42l6.384-3.686c1.373-.793 2.479-2.718 2.475-4.288-.005-1.577-1.118-2.214-2.491-1.421z" fill="#7efcbd" display="block" style="user-select:none"/><path d="M261.263 197.092l-58.886 33.998c-1.366.789-2.48 2.71-2.475 4.287.004 1.57 1.125 2.209 2.491 1.42l58.886-33.997c1.367-.789 2.474-2.714 2.469-4.284-.004-1.578-1.119-2.213-2.485-1.424z" fill="#fff" display="block" style="user-select:none"/><path d="M299.535 162.746l-45.409 26.216c-1.366.789-2.473 2.707-2.469 4.284.005 1.578 1.119 2.213 2.486 1.424l45.408-26.216c1.367-.789 2.473-2.707 2.468-4.284-.004-1.578-1.118-2.213-2.484-1.424z" fill="#7efcbd" display="block" style="user-select:none"/><path d="M245.618 193.875l-6.385 3.687c-1.372.793-2.48 2.711-2.475 4.288.004 1.577 1.119 2.212 2.492 1.42l6.384-3.686c1.373-.793 2.479-2.711 2.475-4.288-.005-1.577-1.118-2.214-2.491-1.421z" fill="#ed5555" display="block" style="user-select:none"/><path d="M230.013 202.885l-27.672 15.976c-1.366.789-2.479 2.71-2.475 4.288.005 1.577 1.125 2.209 2.491 1.42l27.672-15.976c1.367-.789 2.479-2.711 2.475-4.288-.005-1.577-1.125-2.209-2.491-1.42z" fill="#7ac8f0" display="block" style="user-select:none"/><path d="M276.087 163.218l-6.385 3.687c-1.372.793-2.48 2.711-2.475 4.288.004 1.577 1.119 2.212 2.492 1.42l6.384-3.686c1.373-.793 2.479-2.711 2.475-4.288-.005-1.577-1.118-2.214-2.491-1.421z" fill="#7efcbd" display="block" style="user-select:none"/><path d="M261.191 171.818l-58.886 33.998c-1.366.789-2.48 2.71-2.475 4.287.004 1.578 1.125 2.209 2.491 1.42l58.886-33.997c1.366-.789 2.474-2.707 2.469-4.284-.004-1.578-1.119-2.213-2.485-1.424z" fill="#ed5555" display="block" style="user-select:none"/><path d="M299.462 136.664l-41.858 24.168c-1.373.792-2.48 2.71-2.475 4.28.004 1.577 1.119 2.212 2.491 1.419l41.858-24.167c1.367-.788 2.474-2.706 2.469-4.284-.004-1.57-1.119-2.205-2.485-1.416z" fill="#7ac8f0" display="block" style="user-select:none"/><path d="M249.093 165.745l-6.385 3.686c-1.372.793-2.48 2.711-2.475 4.281.004 1.577 1.119 2.212 2.492 1.42l6.384-3.687c1.366-.788 2.479-2.71 2.475-4.287-.005-1.57-1.125-2.202-2.491-1.413zm-15.61 9.013l-31.216 18.022c-1.366.789-2.479 2.71-2.474 4.28.004 1.578 1.124 2.209 2.491 1.42l31.215-18.022c1.373-.792 2.479-2.71 2.475-4.287-.005-1.57-1.118-2.206-2.491-1.413zm65.945-50.323l-14.194 8.194c-1.366.789-2.479 2.711-2.475 4.288.005 1.578 1.126 2.209 2.492 1.42l14.193-8.194c1.367-.789 2.474-2.707 2.469-4.284-.004-1.578-1.119-2.213-2.485-1.424z" fill="#fff" display="block" style="user-select:none"/><path d="M276.014 137.951l-6.385 3.687c-1.372.793-2.48 2.711-2.475 4.288.004 1.577 1.119 2.212 2.492 1.42l6.384-3.686c1.373-.793 2.479-2.711 2.475-4.288-.005-1.577-1.118-2.214-2.491-1.421z" fill="#7efcbd" display="block" style="user-select:none"/><path d="M261.119 146.551l-58.886 33.998c-1.366.789-2.48 2.71-2.475 4.287.004 1.578 1.125 2.209 2.491 1.42l58.886-33.997c1.367-.789 2.474-2.707 2.469-4.284-.004-1.578-1.119-2.213-2.485-1.424z" fill="#7ac8f0" display="block" style="user-select:none"/><path d="M231.996 151.116l-6.385 3.687c-1.372.793-2.48 2.711-2.475 4.288.004 1.577 1.119 2.212 2.492 1.42l6.384-3.686c1.373-.793 2.479-2.711 2.475-4.288-.005-1.577-1.118-2.214-2.491-1.421z" fill="#7efcbd" display="block" style="user-select:none"/><path d="M216.393 160.125l-14.194 8.194c-1.366.789-2.479 2.711-2.475 4.288.005 1.578 1.126 2.209 2.492 1.42l14.192-8.194c1.366-.789 2.474-2.707 2.469-4.284-.004-1.578-1.118-2.213-2.484-1.424z" fill="#fff" display="block" style="user-select:none"/><path d="M299.356 99.16l-31.216 18.022c-1.372.792-2.479 2.719-2.474 4.289.004 1.577 1.118 2.211 2.491 1.418l31.214-18.021c1.367-.789 2.474-2.707 2.469-4.284-.004-1.57-1.118-2.213-2.484-1.424z" fill="#7efcbd" display="block" style="user-select:none"/><path d="M258.916 122.508l-6.385 3.687c-1.372.793-2.48 2.718-2.475 4.288.004 1.577 1.119 2.212 2.492 1.42l6.384-3.686c1.373-.793 2.479-2.711 2.475-4.288-.005-1.57-1.118-2.214-2.491-1.421z" fill="#fff" display="block" style="user-select:none"/><path d="M244.02 131.109l-41.858 24.167c-1.366.788-2.48 2.717-2.475 4.287.004 1.578 1.125 2.209 2.491 1.42l41.858-24.166c1.373-.793 2.48-2.711 2.476-4.288-.005-1.57-1.119-2.213-2.492-1.42z" fill="#7ac8f0" display="block" style="user-select:none"/><path d="M299.319 86.124l-58.886 33.998c-1.366.789-2.48 2.71-2.475 4.287.004 1.57 1.125 2.202 2.491 1.413l58.886-33.998c1.367-.788 2.474-2.706 2.469-4.276-.004-1.578-1.119-2.213-2.485-1.424z" fill="#ed5555" display="block" style="user-select:none"/><path d="M231.923 125.035l-6.385 3.686c-1.372.793-2.48 2.711-2.475 4.288.004 1.57 1.119 2.205 2.492 1.413l6.384-3.687c1.373-.792 2.479-2.71 2.475-4.28-.005-1.577-1.118-2.213-2.491-1.42z" fill="#7efcbd" display="block" style="user-select:none"/><path d="M216.319 134.044l-14.194 8.194c-1.366.789-2.479 2.712-2.475 4.289.005 1.57 1.126 2.201 2.492 1.412l14.192-8.195c1.366-.788 2.474-2.706 2.469-4.276-.004-1.578-1.118-2.213-2.484-1.424z" fill="#fff" display="block" style="user-select:none"/><path d="M299.283 73.894L271.611 89.87c-1.373.792-2.479 2.71-2.475 4.288.005 1.577 1.118 2.212 2.491 1.42l27.671-15.976c1.367-.789 2.474-2.707 2.469-4.284-.004-1.578-1.118-2.213-2.484-1.424z" fill="#7ac8f0" display="block" style="user-select:none"/><path d="M262.394 95.192l-6.385 3.687c-1.372.793-2.48 2.711-2.475 4.288.004 1.577 1.119 2.212 2.492 1.42l6.384-3.686c1.373-.793 2.479-2.711 2.475-4.288-.005-1.577-1.118-2.214-2.491-1.421z" fill="#ed5555" display="block" style="user-select:none"/><path d="M247.492 103.796l-45.401 26.212c-1.367.789-2.48 2.711-2.476 4.288.005 1.578 1.126 2.209 2.492 1.42l45.401-26.212c1.373-.793 2.479-2.711 2.475-4.288-.005-1.577-1.118-2.213-2.491-1.42z" fill="#7efcbd" display="block" style="user-select:none"/></g><g clip-path="url(#c)" transform="translate(-230 -40)" style="user-select:none"><path d="M548.669 258.664a1.63 1.63 0 1 1-3.26 0 1.63 1.63 0 0 1 3.26 0zm91.612-51.023l-8.455 4.882c-.422.244-.767.832-.766 1.325.002.485.349.683.771.44l8.454-4.881c.422-.244.767-.841.765-1.326-.001-.493-.347-.684-.769-.44zm-.01-3.537l-8.455 4.882c-.422.244-.767.84-.766 1.325.002.493.349.683.771.44l8.454-4.881c.422-.244.767-.833.765-1.326-.001-.485-.347-.684-.769-.44zm-3.819 9.284l-4.616 2.664c-.421.244-.765.842-.764 1.327.001.485.349.683.771.439l4.613-2.664c.422-.244.767-.841.765-1.326-.001-.485-.347-.684-.769-.44z" fill="#fff" display="block" style="user-select:none"/><path d="M627.875 211.5l-80.75 47.375" fill="none" stroke="#fff" display="block" style="user-select:none"/></g><g clip-path="url(#d)" transform="translate(-230 60)" style="user-select:none"><g style="user-select:none" fill="#fff"><path d="M328.725 316.679l-8.454 4.882c-.422.244-.767.832-.766 1.325.002.485.349.683.771.44l8.453-4.881c.422-.244.768-.841.766-1.326-.001-.493-.348-.684-.77-.44zm-.011-3.537l-8.454 4.882c-.422.244-.767.84-.766 1.325.002.493.349.683.771.44l8.453-4.881c.422-.244.768-.833.766-1.326-.001-.485-.348-.684-.77-.44zm-3.819 9.284l-4.614 2.664c-.422.244-.767.841-.766 1.326.001.485.349.683.771.439l4.613-2.663c.422-.244.768-.841.766-1.326-.001-.485-.348-.684-.77-.44z" display="block"/><path d="M328.725 316.679l-8.454 4.882c-.422.244-.767.832-.766 1.325.002.485.349.683.771.44l8.453-4.881c.422-.244.768-.841.766-1.326-.001-.493-.348-.684-.77-.44zm-3.83 5.747l-4.614 2.664c-.422.244-.767.841-.766 1.326.001.485.349.683.771.439l4.613-2.663c.422-.244.768-.841.766-1.326-.001-.485-.348-.684-.77-.44z" display="block"/></g><path d="M412.728 263.248l.008 3.276 2.852-1.645-.009-3.278-2.851 1.647zm1.429-.825c-.795.46-1.428 1.556-1.425 2.459.003.904.638 1.276 1.435.817.785-.453 1.418-1.56 1.415-2.464-.001-.903-.638-1.265-1.425-.812z" fill="#fff" display="block" style="user-select:none"/><path d="M332.25 311.5l82.125-47.625" fill="none" stroke="#fff" display="block" style="user-select:none"/></g><g clip-path="url(#e)" transform="translate(-230 -60)" style="user-select:none"><g style="user-select:none" fill="#fff"><path d="M328.725 316.679l-8.454 4.882c-.422.244-.767.832-.766 1.325.002.485.349.683.771.44l8.453-4.881c.422-.244.768-.841.766-1.326-.001-.493-.348-.684-.77-.44zm-.011-3.537l-8.454 4.882c-.422.244-.767.84-.766 1.325.002.493.349.683.771.44l8.453-4.881c.422-.244.768-.833.766-1.326-.001-.485-.348-.684-.77-.44zm-3.819 9.284l-4.614 2.664c-.422.244-.767.841-.766 1.326.001.485.349.683.771.439l4.613-2.663c.422-.244.768-.841.766-1.326-.001-.485-.348-.684-.77-.44z" display="block"/><path d="M328.725 316.679l-8.454 4.882c-.422.244-.767.832-.766 1.325.002.485.349.683.771.44l8.453-4.881c.422-.244.768-.841.766-1.326-.001-.493-.348-.684-.77-.44zm-3.83 5.747l-4.614 2.664c-.422.244-.767.841-.766 1.326.001.485.349.683.771.439l4.613-2.663c.422-.244.768-.841.766-1.326-.001-.485-.348-.684-.77-.44z" display="block"/></g><path d="M412.728 263.248l.008 3.276 2.852-1.645-.009-3.278-2.851 1.647zm1.429-.825c-.795.46-1.428 1.556-1.425 2.459.003.904.638 1.276 1.435.817.785-.453 1.418-1.56 1.415-2.464-.001-.903-.638-1.265-1.425-.812z" fill="#fff" display="block" style="user-select:none"/><path d="M332.25 311.5l82.125-47.625" fill="none" stroke="#fff" display="block" style="user-select:none"/></g><path d="M195.99 95.569c.913-.527 1.656-.104 1.659.945.003 1.05-.735 2.335-1.648 2.863-.92.53-1.663.1-1.666-.949-.003-1.05.736-2.328 1.655-2.859zm-7.317 4.225c.913-.527 1.656-.104 1.659.945.003 1.05-.735 2.335-1.648 2.863-.92.53-1.663.1-1.666-.949-.003-1.05.736-2.328 1.655-2.859zm-7.317 4.224c.913-.527 1.656-.104 1.659.945.003 1.05-.735 2.335-1.648 2.863-.92.53-1.663.1-1.666-.949-.003-1.05.736-2.328 1.655-2.859z" fill="#b7c0e2" style="user-select:none"/></g></svg>