<svg class="background_waves" xmlns="http://www.w3.org/2000/svg" preserveAspectRatio="none" viewBox="0 0 1000 300"><path fill="#c4dbea" d="M1082.3 481.7C930 489 778 495 625 481c-32-3-63.5-7.5-95-11.8C310 442 86 450-134 479c2-119 14-237 10-356C46 81 223-12 399 48c79 27 148 73 224.3 106 19.1 8 38.6 15.2 58.7 21.2s40.7 10.7 62 13.9c117 17 231-1 344-24-1 89-3 178-5 266.7-.5 29.6-.7 49.9-.7 49.9z"/><path fill="#4c688b" d="M1081.3 556.9C896 532 712 547 526 562c-18 2-35 3-52.5 2.1-25.3.4-50.7.6-75.9 1.1C220 568 42 575-136 568c-1-56-1.8-111.7-2.4-167.5C-140 345-139 289-140 233c244 16 493 12 728.4-62.4 32.6-8.2 65.2-15.5 97.9-21.5C817 125 948.3 121.7 1077 169c0 109 2 217 3.4 325.9.5 37.6.9 62 .9 62z"/><path fill="#2e496a" d="M1082 655h-70.1C783 663 556 661 326 643c-36-3-73-1-108.8.2-26.3 1.6-52.7 3.8-79.2 6.8-61 6-122 6-182.9 5H-135V307s33.8-.5 89.6-10.3c22.3-4.4 43.9-10.7 64.8-18.5 20.9-7.7 41.2-16.9 61.2-26.9C176 200 274 133 391 163c40 10 76 21 113 37 72 32 138 73 210 105 52 24 107 30 164 21 69-10 136-15 204-19v348z"/></svg>