<svg version="1.1" xmlns="http://www.w3.org/2000/svg" xmlns:xlink="http://www.w3.org/1999/xlink" preserveAspectRatio="none" x="0px" y="0px" viewBox="0 0 1000 300" enable-background="new 0 0 1000 300" xml:space="preserve">
<defs>  
        <linearGradient id="logo-gradient" x1="50%" y1="0%" x2="50%" y2="100%" > 
            
            <stop offset="0%" stop-color="#7A5FFF">
                <animate attributeName="stop-color" begin=".5s" values="#7A5FFF; #79c4c8; #7A5FFF" dur="10s" repeatCount="indefinite"></animate>
            </stop>

            <stop offset="100%" stop-color="#01FF89">
                <animate attributeName="stop-color" begin=".5s" values="#01FF89; #79c4c8; #01FF89" dur="10s" repeatCount="indefinite"></animate>
            </stop>

        </linearGradient> 

</defs>
<defs>  
        <linearGradient id="logo-gradient2" x1="50%" y1="0%" x2="50%" y2="100%" > 
            
            <stop offset="0%" stop-color="#2998ff">
                <animate attributeName="stop-color" begin="3s" values="#2998ff; #79c4c8; #2998ff" dur="10s" repeatCount="indefinite"></animate>
            </stop>

            <stop offset="100%" stop-color="#5643fa">
                <animate attributeName="stop-color" begin="3s" values="#5643fa; #79c4c8; #5643fa" dur="10s" repeatCount="indefinite"></animate>
            </stop>

        </linearGradient> 

</defs>
<defs>  
        <linearGradient id="logo-gradient3" x1="50%" y1="0%" x2="50%" y2="100%" > 
            
            <stop offset="0%" stop-color="#f76c6c">
                <animate attributeName="stop-color" begin="5.5s" values="#f76c6c; #faabab; #f76c6c" dur="10s" repeatCount="indefinite"></animate>
            </stop>

            <stop offset="100%" stop-color="#ff7730">
                <animate attributeName="stop-color" begin="5.5s" values="#ff7730; #faabab; #ff7730" dur="10s" repeatCount="indefinite"></animate>
            </stop>

        </linearGradient> 

</defs>
<g>
<path fill="url('#logo-gradient')" d="M1082.3,481.7C930,489,778,495,625,481c-32-3-63.5-7.5-95-11.8C310,442,86,450-134,479c2-119,14-237,10-356&#10;  C46,81,223-12,399,48c79,27,148,73,224.3,106c19.1,8,38.6,15.2,58.7,21.2c20.1,6,40.7,10.7,62,13.9c117,17,231-1,344-24&#10;  c-1,89-3,178-5,266.7C1082.5,461.4,1082.3,481.7,1082.3,481.7z"/>
<path fill="url('#logo-gradient2')" d="M1081.3,556.9C896,532,712,547,526,562c-18,2-35,3-52.5,2.1c-25.3,0.4-50.7,0.6-75.9,1.1&#10;  C220,568,42,575-136,568c-1-56-1.8-111.7-2.4-167.5C-140,345-139,289-140,233c244,16,493,12,728.4-62.4&#10;  c32.6-8.2,65.2-15.5,97.9-21.5C817,125,948.3,121.7,1077,169c0,109,2,217,3.4,325.9C1080.9,532.5,1081.3,556.9,1081.3,556.9z"/>
<path fill="url('#logo-gradient3')" d="M1082,655c0,0-25.9,0-70.1,0C783,663,556,661,326,643c-36-3-73-1-108.8,0.2c-26.3,1.6-52.7,3.8-79.2,6.8&#10;  c-61,6-122,6-182.9,5c-56.3,0-90.1,0-90.1,0V307c0,0,33.8-0.5,89.6-10.3c22.3-4.4,43.9-10.7,64.8-18.5c20.9-7.7,41.2-16.9,61.2-26.9&#10;  C176,200,274,133,391,163c40,10,76,21,113,37c72,32,138,73,210,105c52,24,107,30,164,21c69-10,136-15,204-19c0,58,0,116,0,174&#10;  c0,43.5,0,87,0,119.6S1082,655,1082,655z"/>
</g>
</svg>
